<svg xmlns="http://www.w3.org/2000/svg" viewBox="0 0 720 320" fill="none">
  <rect width="720" height="320" rx="16" fill="#0f172a"/>
  <text x="360" y="36" text-anchor="middle" fill="#22d3ee" font-family="system-ui,sans-serif" font-size="18" font-weight="700">HashMap 结构（JDK8+）</text>
  <rect x="40" y="70" width="640" height="220" rx="12" stroke="#334155" fill="#1e293b"/>
  <text x="80" y="105" fill="#94a3b8" font-size="12">table[]</text>
  <rect x="80" y="120" width="80" height="48" rx="6" fill="#164e63" stroke="#22d3ee"/>
  <rect x="180" y="120" width="80" height="48" rx="6" fill="#0f766e"/>
  <rect x="280" y="120" width="80" height="48" rx="6" fill="#164e63" stroke="#22d3ee"/>
  <rect x="380" y="120" width="80" height="48" rx="6" fill="#1e293b" stroke="#475569"/>
  <text x="120" y="150" text-anchor="middle" fill="#f8fafc" font-size="11">[0]</text>
  <text x="220" y="150" text-anchor="middle" fill="#f8fafc" font-size="11">[1]</text>
  <text x="320" y="150" text-anchor="middle" fill="#f8fafc" font-size="11">[2]</text>
  <text x="420" y="150" text-anchor="middle" fill="#64748b" font-size="11">...</text>
  <rect x="300" y="190" width="100" height="40" rx="6" fill="#312e81" stroke="#818cf8"/>
  <text x="350" y="215" text-anchor="middle" fill="#f8fafc" font-size="11">Node</text>
  <rect x="420" y="190" width="100" height="40" rx="6" fill="#312e81" stroke="#818cf8"/>
  <text x="470" y="215" text-anchor="middle" fill="#f8fafc" font-size="11">Node→</text>
  <path d="M320 168v22M350 230h70" stroke="#64748b" stroke-width="2"/>
  <text x="520" y="210" fill="#94a3b8" font-size="12">链表 / 红黑树(≥8)</text>
</svg>
